<mxfile host="65bd71144e">
    <diagram id="tSGQkMMUDfGcxjDFG-of" name="Page-1">
        <mxGraphModel dx="1296" dy="673" grid="1" gridSize="10" guides="1" tooltips="1" connect="1" arrows="1" fold="1" page="1" pageScale="1" pageWidth="850" pageHeight="1100" math="0" shadow="0">
            <root>
                <mxCell id="0"/>
                <mxCell id="1" parent="0"/>
                <mxCell id="2" value="" style="rounded=0;whiteSpace=wrap;html=1;fillColor=none;strokeWidth=4;" vertex="1" parent="1">
                    <mxGeometry x="320" y="280" width="120" height="80" as="geometry"/>
                </mxCell>
                <mxCell id="3" value="2 x 3" style="text;html=1;align=center;verticalAlign=middle;resizable=0;points=[];autosize=1;strokeColor=none;fillColor=none;" vertex="1" parent="1">
                    <mxGeometry x="350" y="240" width="40" height="20" as="geometry"/>
                </mxCell>
                <mxCell id="4" value="" style="rounded=0;whiteSpace=wrap;html=1;fillColor=none;strokeWidth=4;" vertex="1" parent="1">
                    <mxGeometry x="480" y="280" width="80" height="80" as="geometry"/>
                </mxCell>
                <mxCell id="5" value="2 x 2" style="text;html=1;align=center;verticalAlign=middle;resizable=0;points=[];autosize=1;strokeColor=none;fillColor=none;" vertex="1" parent="1">
                    <mxGeometry x="510" y="240" width="40" height="20" as="geometry"/>
                </mxCell>
                <mxCell id="6" value="" style="rounded=0;whiteSpace=wrap;html=1;fillColor=none;strokeWidth=4;" vertex="1" parent="1">
                    <mxGeometry x="600" y="280" width="40" height="80" as="geometry"/>
                </mxCell>
                <mxCell id="7" value="2 x 1" style="text;html=1;align=center;verticalAlign=middle;resizable=0;points=[];autosize=1;strokeColor=none;fillColor=none;" vertex="1" parent="1">
                    <mxGeometry x="600" y="240" width="40" height="20" as="geometry"/>
                </mxCell>
                <mxCell id="8" value="" style="rounded=0;whiteSpace=wrap;html=1;fillColor=none;strokeWidth=4;direction=south;" vertex="1" parent="1">
                    <mxGeometry x="680" y="280" width="80" height="40" as="geometry"/>
                </mxCell>
                <mxCell id="9" value="1 x 2" style="text;html=1;align=center;verticalAlign=middle;resizable=0;points=[];autosize=1;strokeColor=none;fillColor=none;" vertex="1" parent="1">
                    <mxGeometry x="700" y="240" width="40" height="20" as="geometry"/>
                </mxCell>
                <mxCell id="14" value="" style="rounded=0;whiteSpace=wrap;html=1;strokeWidth=4;fillColor=#008a00;fontColor=#ffffff;strokeColor=#005700;opacity=30;" vertex="1" parent="1">
                    <mxGeometry x="320" y="280" width="40" height="80" as="geometry"/>
                </mxCell>
                <mxCell id="15" value="" style="rounded=0;whiteSpace=wrap;html=1;strokeWidth=4;fillColor=#008a00;direction=south;fontColor=#ffffff;strokeColor=#005700;opacity=30;" vertex="1" parent="1">
                    <mxGeometry x="360" y="320" width="80" height="40" as="geometry"/>
                </mxCell>
                <mxCell id="16" value="" style="rounded=0;whiteSpace=wrap;html=1;fillColor=none;strokeWidth=4;direction=south;" vertex="1" parent="1">
                    <mxGeometry x="320" y="480" width="120" height="40" as="geometry"/>
                </mxCell>
                <mxCell id="17" value="1 x 3" style="text;html=1;align=center;verticalAlign=middle;resizable=0;points=[];autosize=1;strokeColor=none;fillColor=none;" vertex="1" parent="1">
                    <mxGeometry x="350" y="440" width="40" height="20" as="geometry"/>
                </mxCell>
            </root>
        </mxGraphModel>
    </diagram>
    <diagram id="noWKutF4-p0yBE1XbrUB" name="Page-2">
        <mxGraphModel dx="1296" dy="673" grid="1" gridSize="10" guides="1" tooltips="1" connect="1" arrows="1" fold="1" page="1" pageScale="1" pageWidth="850" pageHeight="1100" math="0" shadow="0">
            <root>
                <mxCell id="AQcUnbsClU7jkmkwZBsO-0"/>
                <mxCell id="AQcUnbsClU7jkmkwZBsO-1" parent="AQcUnbsClU7jkmkwZBsO-0"/>
                <mxCell id="DckESceyEQgAvxwG9lts-0" value="" style="rounded=0;whiteSpace=wrap;html=1;fillColor=none;strokeWidth=4;" vertex="1" parent="AQcUnbsClU7jkmkwZBsO-1">
                    <mxGeometry x="80" y="120" width="280" height="120" as="geometry"/>
                </mxCell>
                <mxCell id="DckESceyEQgAvxwG9lts-1" value="3 x 7" style="text;html=1;align=center;verticalAlign=middle;resizable=0;points=[];autosize=1;strokeColor=none;fillColor=none;" vertex="1" parent="AQcUnbsClU7jkmkwZBsO-1">
                    <mxGeometry x="190" y="70" width="40" height="20" as="geometry"/>
                </mxCell>
                <mxCell id="DckESceyEQgAvxwG9lts-3" value="" style="shape=singleArrow;direction=south;whiteSpace=wrap;html=1;strokeWidth=4;fillColor=#d80073;opacity=30;fontColor=#ffffff;strokeColor=#A50040;" vertex="1" parent="AQcUnbsClU7jkmkwZBsO-1">
                    <mxGeometry x="90" y="130" width="20" height="100" as="geometry"/>
                </mxCell>
                <mxCell id="DckESceyEQgAvxwG9lts-4" value="" style="shape=singleArrow;direction=east;whiteSpace=wrap;html=1;strokeWidth=4;fillColor=#d80073;opacity=30;fontColor=#ffffff;strokeColor=#A50040;" vertex="1" parent="AQcUnbsClU7jkmkwZBsO-1">
                    <mxGeometry x="120" y="210" width="220" height="20" as="geometry"/>
                </mxCell>
                <mxCell id="DckESceyEQgAvxwG9lts-5" value="" style="shape=singleArrow;direction=east;whiteSpace=wrap;html=1;strokeWidth=4;fillColor=#60a917;opacity=30;fontColor=#ffffff;strokeColor=#2D7600;" vertex="1" parent="AQcUnbsClU7jkmkwZBsO-1">
                    <mxGeometry x="90" y="130" width="60" height="20" as="geometry"/>
                </mxCell>
                <mxCell id="DckESceyEQgAvxwG9lts-6" value="" style="shape=singleArrow;direction=south;whiteSpace=wrap;html=1;strokeWidth=4;fillColor=#60a917;opacity=30;fontColor=#ffffff;strokeColor=#2D7600;" vertex="1" parent="AQcUnbsClU7jkmkwZBsO-1">
                    <mxGeometry x="130" y="130" width="20" height="95" as="geometry"/>
                </mxCell>
                <mxCell id="DckESceyEQgAvxwG9lts-7" value="" style="shape=singleArrow;direction=east;whiteSpace=wrap;html=1;strokeWidth=4;fillColor=#60a917;opacity=30;fontColor=#ffffff;strokeColor=#2D7600;" vertex="1" parent="AQcUnbsClU7jkmkwZBsO-1">
                    <mxGeometry x="130" y="205" width="210" height="20" as="geometry"/>
                </mxCell>
                <mxCell id="fdc673Zx2qrimQgo3RBk-0" value="" style="rounded=0;whiteSpace=wrap;html=1;fillColor=none;strokeWidth=4;" vertex="1" parent="AQcUnbsClU7jkmkwZBsO-1">
                    <mxGeometry x="560" y="120" width="80" height="120" as="geometry"/>
                </mxCell>
                <mxCell id="fdc673Zx2qrimQgo3RBk-1" value="3" style="text;html=1;align=center;verticalAlign=middle;resizable=0;points=[];autosize=1;strokeColor=none;fillColor=none;" vertex="1" parent="AQcUnbsClU7jkmkwZBsO-1">
                    <mxGeometry x="590" y="250" width="20" height="20" as="geometry"/>
                </mxCell>
                <mxCell id="fdc673Zx2qrimQgo3RBk-2" value="" style="rounded=0;whiteSpace=wrap;html=1;fillColor=none;strokeWidth=4;" vertex="1" parent="AQcUnbsClU7jkmkwZBsO-1">
                    <mxGeometry x="560" y="280" width="120" height="120" as="geometry"/>
                </mxCell>
                <mxCell id="fdc673Zx2qrimQgo3RBk-3" value="6" style="text;html=1;align=center;verticalAlign=middle;resizable=0;points=[];autosize=1;strokeColor=none;fillColor=none;" vertex="1" parent="AQcUnbsClU7jkmkwZBsO-1">
                    <mxGeometry x="610" y="410" width="20" height="20" as="geometry"/>
                </mxCell>
                <mxCell id="fdc673Zx2qrimQgo3RBk-4" value="" style="rounded=0;whiteSpace=wrap;html=1;fillColor=none;strokeWidth=4;" vertex="1" parent="AQcUnbsClU7jkmkwZBsO-1">
                    <mxGeometry x="560" y="440" width="160" height="120" as="geometry"/>
                </mxCell>
                <mxCell id="fdc673Zx2qrimQgo3RBk-5" value="10" style="text;html=1;align=center;verticalAlign=middle;resizable=0;points=[];autosize=1;strokeColor=none;fillColor=none;" vertex="1" parent="AQcUnbsClU7jkmkwZBsO-1">
                    <mxGeometry x="625" y="570" width="30" height="20" as="geometry"/>
                </mxCell>
            </root>
        </mxGraphModel>
    </diagram>
</mxfile>